<svg xmlns="http://www.w3.org/2000/svg" version="1.1" xmlns:xlink="http://www.w3.org/1999/xlink" xmlns:svgjs="http://svgjs.dev/svgjs" width="1400" height="860" preserveAspectRatio="none" viewBox="0 0 1400 860">
    <g mask="url(&quot;#SvgjsMask1023&quot;)" fill="none">
        <rect width="1400" height="860" x="0" y="0" fill="rgba(3, 44, 87, 1)"></rect>
        <path d="M569 226L568 -152" stroke-width="8" stroke="url(&quot;#SvgjsLinearGradient1024&quot;)" stroke-linecap="round" class="Down"></path>
        <path d="M1369 110L1368 -510" stroke-width="8" stroke="url(&quot;#SvgjsLinearGradient1024&quot;)" stroke-linecap="round" class="Down"></path>
        <path d="M505 571L504 908" stroke-width="10" stroke="url(&quot;#SvgjsLinearGradient1024&quot;)" stroke-linecap="round" class="Down"></path>
        <path d="M375 516L374 20" stroke-width="6" stroke="url(&quot;#SvgjsLinearGradient1025&quot;)" stroke-linecap="round" class="Up"></path>
        <path d="M979 759L978 1380" stroke-width="8" stroke="url(&quot;#SvgjsLinearGradient1025&quot;)" stroke-linecap="round" class="Up"></path>
        <path d="M774 650L773 963" stroke-width="8" stroke="url(&quot;#SvgjsLinearGradient1025&quot;)" stroke-linecap="round" class="Up"></path>
        <path d="M706 78L705 660" stroke-width="10" stroke="url(&quot;#SvgjsLinearGradient1025&quot;)" stroke-linecap="round" class="Up"></path>
        <path d="M306 527L305 213" stroke-width="8" stroke="url(&quot;#SvgjsLinearGradient1025&quot;)" stroke-linecap="round" class="Up"></path>
        <path d="M1270 111L1269 560" stroke-width="6" stroke="url(&quot;#SvgjsLinearGradient1025&quot;)" stroke-linecap="round" class="Up"></path>
        <path d="M1352 367L1351 112" stroke-width="8" stroke="url(&quot;#SvgjsLinearGradient1025&quot;)" stroke-linecap="round" class="Up"></path>
        <path d="M66 84L65 536" stroke-width="6" stroke="url(&quot;#SvgjsLinearGradient1024&quot;)" stroke-linecap="round" class="Down"></path>
        <path d="M1036 543L1035 87" stroke-width="10" stroke="url(&quot;#SvgjsLinearGradient1025&quot;)" stroke-linecap="round" class="Up"></path>
        <path d="M16 607L15 325" stroke-width="8" stroke="url(&quot;#SvgjsLinearGradient1025&quot;)" stroke-linecap="round" class="Up"></path>
        <path d="M679 42L678 548" stroke-width="6" stroke="url(&quot;#SvgjsLinearGradient1025&quot;)" stroke-linecap="round" class="Up"></path>
        <path d="M629 472L628 743" stroke-width="8" stroke="url(&quot;#SvgjsLinearGradient1024&quot;)" stroke-linecap="round" class="Down"></path>
        <path d="M313 270L312 644" stroke-width="8" stroke="url(&quot;#SvgjsLinearGradient1025&quot;)" stroke-linecap="round" class="Up"></path>
        <path d="M259 515L258 906" stroke-width="10" stroke="url(&quot;#SvgjsLinearGradient1024&quot;)" stroke-linecap="round" class="Down"></path>
        <path d="M1397 103L1396 631" stroke-width="8" stroke="url(&quot;#SvgjsLinearGradient1024&quot;)" stroke-linecap="round" class="Down"></path>
        <path d="M654 325L653 -309" stroke-width="6" stroke="url(&quot;#SvgjsLinearGradient1025&quot;)" stroke-linecap="round" class="Up"></path>
        <path d="M20 430L19 660" stroke-width="6" stroke="url(&quot;#SvgjsLinearGradient1024&quot;)" stroke-linecap="round" class="Down"></path>
        <path d="M114 833L113 571" stroke-width="10" stroke="url(&quot;#SvgjsLinearGradient1024&quot;)" stroke-linecap="round" class="Down"></path>
        <path d="M130 648L129 994" stroke-width="6" stroke="url(&quot;#SvgjsLinearGradient1025&quot;)" stroke-linecap="round" class="Up"></path>
        <path d="M858 683L857 1313" stroke-width="6" stroke="url(&quot;#SvgjsLinearGradient1025&quot;)" stroke-linecap="round" class="Up"></path>
        <path d="M369 66L368 -396" stroke-width="6" stroke="url(&quot;#SvgjsLinearGradient1024&quot;)" stroke-linecap="round" class="Down"></path>
        <path d="M473 833L472 1255" stroke-width="6" stroke="url(&quot;#SvgjsLinearGradient1024&quot;)" stroke-linecap="round" class="Down"></path>
        <path d="M371 381L370 875" stroke-width="8" stroke="url(&quot;#SvgjsLinearGradient1025&quot;)" stroke-linecap="round" class="Up"></path>
        <path d="M1036 530L1035 888" stroke-width="8" stroke="url(&quot;#SvgjsLinearGradient1025&quot;)" stroke-linecap="round" class="Up"></path>
        <path d="M1282 338L1281 808" stroke-width="6" stroke="url(&quot;#SvgjsLinearGradient1025&quot;)" stroke-linecap="round" class="Up"></path>
        <path d="M63 308L62 640" stroke-width="6" stroke="url(&quot;#SvgjsLinearGradient1025&quot;)" stroke-linecap="round" class="Up"></path>
        <path d="M376 105L375 377" stroke-width="10" stroke="url(&quot;#SvgjsLinearGradient1025&quot;)" stroke-linecap="round" class="Up"></path>
        <path d="M26 408L25 642" stroke-width="8" stroke="url(&quot;#SvgjsLinearGradient1025&quot;)" stroke-linecap="round" class="Up"></path>
        <path d="M431 342L430 -28" stroke-width="8" stroke="url(&quot;#SvgjsLinearGradient1025&quot;)" stroke-linecap="round" class="Up"></path>
        <path d="M785 363L784 57" stroke-width="10" stroke="url(&quot;#SvgjsLinearGradient1024&quot;)" stroke-linecap="round" class="Down"></path>
        <path d="M389 660L388 421" stroke-width="6" stroke="url(&quot;#SvgjsLinearGradient1024&quot;)" stroke-linecap="round" class="Down"></path>
        <path d="M682 227L681 773" stroke-width="8" stroke="url(&quot;#SvgjsLinearGradient1025&quot;)" stroke-linecap="round" class="Up"></path>
    </g>
    <defs>
        <mask id="SvgjsMask1023">
            <rect width="1400" height="860" fill="#ffffff"></rect>
        </mask>
        <linearGradient x1="0%" y1="0%" x2="0%" y2="100%" id="SvgjsLinearGradient1024">
            <stop stop-color="rgba(13, 104, 202, 0)" offset="0"></stop>
            <stop stop-color="rgba(13, 104, 202, 1)" offset="1"></stop>
        </linearGradient>
        <linearGradient x1="0%" y1="100%" x2="0%" y2="0%" id="SvgjsLinearGradient1025">
            <stop stop-color="rgba(13, 104, 202, 0)" offset="0"></stop>
            <stop stop-color="rgba(13, 104, 202, 1)" offset="1"></stop>
        </linearGradient>
    </defs>
</svg>